<svg width="34" height="25" viewBox="0 0 34 25" fill="none" xmlns="http://www.w3.org/2000/svg">
<path d="M3.05981 13.1244L3.00008 12.3426L2.99954 12.3395L3.00371 12.3388L3.02577 12.3352C3.04639 12.3317 3.07868 12.3261 3.12173 12.318C3.20785 12.302 3.33689 12.2765 3.50167 12.2395C3.83154 12.1656 4.30287 12.0464 4.85873 11.867C5.97534 11.5066 7.40803 10.9114 8.71879 9.97129C9.96543 9.07722 10.9446 7.58204 11.6242 6.24159C11.9587 5.58179 12.2101 4.98098 12.3774 4.54588C12.461 4.32869 12.5232 4.15374 12.5641 4.03455C12.5846 3.97497 12.5997 3.9294 12.6094 3.89952L12.62 3.86672L12.6222 3.85956L12.6226 3.85852C12.6225 3.85864 12.6225 3.85878 13.3389 4.08075C14.0553 4.30273 14.0552 4.3029 14.0552 4.30309L14.0546 4.30479L14.0535 4.30849L14.0496 4.32073L14.0357 4.36404C14.0236 4.40105 14.006 4.45411 13.9829 4.52149C13.9367 4.6562 13.8682 4.84845 13.7775 5.08438C13.5962 5.55552 13.3247 6.20472 12.9621 6.91992C12.2474 8.32947 11.135 10.0843 9.59299 11.1902C8.96625 11.6397 8.31964 12.0163 7.69066 12.3308H31.0005V13.8308H8.03482C8.54257 14.0723 9.05708 14.3505 9.55905 14.6706C11.1046 15.6558 12.224 17.2237 12.9446 18.4869C13.3097 19.1269 13.5831 19.708 13.7658 20.1301C13.8573 20.3415 13.9264 20.514 13.9732 20.6353C13.9966 20.6959 14.0145 20.7438 14.0268 20.7774L14.0411 20.8169L14.0451 20.8283L14.0464 20.8318L14.0468 20.833C14.0469 20.8332 14.0471 20.8339 13.3389 21.0808C12.6307 21.3276 12.6307 21.3278 12.6308 21.3279L12.6285 21.3216L12.6183 21.2934C12.6089 21.2676 12.594 21.2278 12.5739 21.1756C12.5335 21.0711 12.4719 20.9172 12.3891 20.7258C12.2232 20.3424 11.9738 19.8124 11.6417 19.2301C10.9679 18.0489 9.99587 16.7279 8.75272 15.9354C7.44025 15.0987 6.00376 14.5678 4.88226 14.2461C4.32427 14.086 3.85088 13.9796 3.51916 13.9135C3.35345 13.8805 3.22352 13.8577 3.13655 13.8433C3.09308 13.8361 3.06038 13.831 3.03936 13.8278L3.0167 13.8245L3.01216 13.8238L3.01247 13.8208L3.05981 13.1244Z" fill="black"/>
</svg>
