<svg width="24" height="25" viewBox="0 0 24 25" fill="none" xmlns="http://www.w3.org/2000/svg">
<g clip-path="url(#clip0_1724_5046)">
<path d="M17 4.85767H21C21.2652 4.85767 21.5196 4.96302 21.7071 5.15056C21.8946 5.3381 22 5.59245 22 5.85767V21.8577C22 22.1229 21.8946 22.3772 21.7071 22.5648C21.5196 22.7523 21.2652 22.8577 21 22.8577H3C2.73478 22.8577 2.48043 22.7523 2.29289 22.5648C2.10536 22.3772 2 22.1229 2 21.8577V5.85767C2 5.59245 2.10536 5.3381 2.29289 5.15056C2.48043 4.96302 2.73478 4.85767 3 4.85767H7V2.85767H9V4.85767H15V2.85767H17V4.85767ZM15 6.85767H9V8.85767H7V6.85767H4V10.8577H20V6.85767H17V8.85767H15V6.85767ZM20 12.8577H4V20.8577H20V12.8577Z" fill="#1E1C0B"/>
</g>
<defs>
<clipPath id="clip0_1724_5046">
<rect width="24" height="24" fill="white" transform="translate(0 0.857666)"/>
</clipPath>
</defs>
</svg>
