<svg width="24" height="25" viewBox="0 0 24 25" fill="none" xmlns="http://www.w3.org/2000/svg">
<path d="M12.001 9.8577C10.3436 9.8577 9.00098 11.2008 9.00098 12.8577C9.00098 14.515 10.3441 15.8577 12.001 15.8577C13.6583 15.8577 15.001 14.5146 15.001 12.8577C15.001 11.2004 13.6579 9.8577 12.001 9.8577ZM12.001 7.8577C14.7614 7.8577 17.001 10.0948 17.001 12.8577C17.001 15.6182 14.7639 17.8577 12.001 17.8577C9.24051 17.8577 7.00098 15.6206 7.00098 12.8577C7.00098 10.0972 9.23808 7.8577 12.001 7.8577ZM18.501 7.60685C18.501 8.29696 17.9402 8.85687 17.251 8.85687C16.5609 8.85687 16.001 8.2961 16.001 7.60685C16.001 6.9176 16.5617 6.3577 17.251 6.3577C17.9393 6.35683 18.501 6.9176 18.501 7.60685Z" fill="black"/>
<rect x="3.25" y="3.8577" width="18" height="18" rx="1" stroke="black" stroke-width="2"/>
</svg>
