<svg width="24" height="25" viewBox="0 0 24 25" fill="none" xmlns="http://www.w3.org/2000/svg">
<path d="M12 19.441L16.125 15.316C16.9408 14.5002 17.4963 13.4608 17.7213 12.3293C17.9463 11.1977 17.8308 10.0249 17.3892 8.959C16.9477 7.89313 16.2 6.98212 15.2408 6.34118C14.2815 5.70023 13.1537 5.35812 12 5.35812C10.8463 5.35812 9.71851 5.70023 8.75924 6.34118C7.79997 6.98212 7.05229 7.89313 6.61076 8.959C6.16923 10.0249 6.05368 11.1977 6.27871 12.3293C6.50374 13.4608 7.05926 14.5002 7.875 15.316L12 19.441ZM12 21.7977L6.69667 16.4944C5.64779 15.4455 4.93349 14.1091 4.64411 12.6542C4.35473 11.1994 4.50326 9.69139 5.07092 8.32095C5.63858 6.95051 6.59987 5.77918 7.83324 4.95507C9.0666 4.13097 10.5166 3.6911 12 3.6911C13.4834 3.6911 14.9334 4.13097 16.1668 4.95507C17.4001 5.77918 18.3614 6.95051 18.9291 8.32095C19.4968 9.69139 19.6453 11.1994 19.3559 12.6542C19.0665 14.1091 18.3522 15.4455 17.3033 16.4944L12 21.7977ZM12 12.8577C12.442 12.8577 12.866 12.6821 13.1785 12.3695C13.4911 12.057 13.6667 11.6331 13.6667 11.191C13.6667 10.749 13.4911 10.3251 13.1785 10.0125C12.866 9.69996 12.442 9.52437 12 9.52437C11.558 9.52437 11.1341 9.69996 10.8215 10.0125C10.5089 10.3251 10.3333 10.749 10.3333 11.191C10.3333 11.6331 10.5089 12.057 10.8215 12.3695C11.1341 12.6821 11.558 12.8577 12 12.8577ZM12 14.5244C11.1159 14.5244 10.2681 14.1732 9.64298 13.5481C9.01786 12.9229 8.66667 12.0751 8.66667 11.191C8.66667 10.307 9.01786 9.45913 9.64298 8.83401C10.2681 8.20889 11.1159 7.8577 12 7.8577C12.8841 7.8577 13.7319 8.20889 14.357 8.83401C14.9821 9.45913 15.3333 10.307 15.3333 11.191C15.3333 12.0751 14.9821 12.9229 14.357 13.5481C13.7319 14.1732 12.8841 14.5244 12 14.5244Z" fill="#1E1C0B"/>
</svg>
