<svg width="24" height="25" viewBox="0 0 24 25" fill="none" xmlns="http://www.w3.org/2000/svg">
<g clip-path="url(#clip0_1660_3808)">
<path d="M18.364 17.2217L12 23.5857L5.636 17.2217C4.37734 15.963 3.52019 14.3594 3.17293 12.6136C2.82567 10.8677 3.00391 9.05814 3.6851 7.41361C4.36629 5.76908 5.51984 4.36348 6.99988 3.37455C8.47992 2.38563 10.22 1.85779 12 1.85779C13.78 1.85779 15.5201 2.38563 17.0001 3.37455C18.4802 4.36348 19.6337 5.76908 20.3149 7.41361C20.9961 9.05814 21.1743 10.8677 20.8271 12.6136C20.4798 14.3594 19.6227 15.963 18.364 17.2217ZM12 14.8577C13.0609 14.8577 14.0783 14.4363 14.8284 13.6861C15.5786 12.936 16 11.9186 16 10.8577C16 9.79684 15.5786 8.77943 14.8284 8.02928C14.0783 7.27914 13.0609 6.85771 12 6.85771C10.9391 6.85771 9.92172 7.27914 9.17158 8.02928C8.42143 8.77943 8 9.79684 8 10.8577C8 11.9186 8.42143 12.936 9.17158 13.6861C9.92172 14.4363 10.9391 14.8577 12 14.8577ZM12 12.8577C11.4696 12.8577 10.9609 12.647 10.5858 12.2719C10.2107 11.8969 10 11.3881 10 10.8577C10 10.3273 10.2107 9.81857 10.5858 9.4435C10.9609 9.06842 11.4696 8.85771 12 8.85771C12.5304 8.85771 13.0391 9.06842 13.4142 9.4435C13.7893 9.81857 14 10.3273 14 10.8577C14 11.3881 13.7893 11.8969 13.4142 12.2719C13.0391 12.647 12.5304 12.8577 12 12.8577Z" fill="#1E1C0B"/>
</g>
<defs>
<clipPath id="clip0_1660_3808">
<rect width="24" height="24" fill="white" transform="translate(0 0.857666)"/>
</clipPath>
</defs>
</svg>
