<svg width="24" height="25" viewBox="0 0 24 25" fill="none" xmlns="http://www.w3.org/2000/svg">
<g clip-path="url(#clip0_1762_7100)">
<path d="M9.366 11.5397C10.3043 13.1881 11.6695 14.5533 13.318 15.4917L14.202 14.2537C14.3442 14.0546 14.5543 13.9145 14.7928 13.86C15.0313 13.8055 15.2814 13.8402 15.496 13.9577C16.9103 14.7306 18.4722 15.1954 20.079 15.3217C20.3298 15.3415 20.5638 15.4552 20.7345 15.64C20.9052 15.8248 21 16.0671 21 16.3187V20.7807C21.0001 21.0283 20.9083 21.2671 20.7424 21.4509C20.5765 21.6347 20.3483 21.7504 20.102 21.7757C19.572 21.8307 19.038 21.8577 18.5 21.8577C9.94 21.8577 3 14.9177 3 6.35767C3 5.81967 3.027 5.28567 3.082 4.75567C3.10725 4.50936 3.22298 4.28119 3.40679 4.1153C3.5906 3.94941 3.82941 3.85761 4.077 3.85767H8.539C8.79056 3.85763 9.0329 3.95242 9.21768 4.12312C9.40247 4.29382 9.51613 4.52789 9.536 4.77867C9.66222 6.38546 10.1271 7.94735 10.9 9.36167C11.0175 9.57623 11.0522 9.82641 10.9977 10.0649C10.9431 10.3033 10.8031 10.5135 10.604 10.6557L9.366 11.5397ZM6.844 10.8827L8.744 9.52567C8.20478 8.36176 7.83535 7.12651 7.647 5.85767H5.01C5.004 6.02367 5.001 6.19067 5.001 6.35767C5 13.8137 11.044 19.8577 18.5 19.8577C18.667 19.8577 18.834 19.8547 19 19.8477V17.2107C17.7312 17.0223 16.4959 16.6529 15.332 16.1137L13.975 18.0137C13.4287 17.8014 12.898 17.5508 12.387 17.2637L12.329 17.2307C10.3676 16.1144 8.74328 14.4901 7.627 12.5287L7.594 12.4707C7.30691 11.9597 7.05628 11.429 6.844 10.8827Z" fill="#1E1C0B"/>
</g>
<defs>
<clipPath id="clip0_1762_7100">
<rect width="24" height="24" fill="white" transform="translate(0 0.857666)"/>
</clipPath>
</defs>
</svg>
