<svg width="24" height="25" viewBox="0 0 24 25" fill="none" xmlns="http://www.w3.org/2000/svg">
<g clip-path="url(#clip0_1661_5705)">
<path d="M17.6176 7.82567L19.0706 6.37267L20.4846 7.78667L19.0316 9.23967C20.4673 11.0368 21.1605 13.3155 20.9687 15.6078C20.7768 17.9001 19.7146 20.0319 18.0001 21.5654C16.2856 23.0989 14.0489 23.9178 11.7496 23.8537C9.45018 23.7897 7.26258 22.8477 5.63604 21.2212C4.00951 19.5947 3.0675 17.4071 3.00349 15.1077C2.93948 12.8083 3.75832 10.5717 5.29185 8.85718C6.82538 7.14267 8.95718 6.08042 11.2494 5.88859C13.5417 5.69675 15.8204 6.3899 17.6176 7.82567ZM11.9996 21.8577C12.9188 21.8577 13.8291 21.6766 14.6784 21.3248C15.5276 20.973 16.2993 20.4574 16.9493 19.8074C17.5993 19.1574 18.1149 18.3857 18.4667 17.5365C18.8185 16.6872 18.9996 15.7769 18.9996 14.8577C18.9996 13.9384 18.8185 13.0282 18.4667 12.1789C18.1149 11.3296 17.5993 10.5579 16.9493 9.90792C16.2993 9.25791 15.5276 8.74229 14.6784 8.39051C13.8291 8.03873 12.9188 7.85767 11.9996 7.85767C10.1431 7.85767 8.36258 8.59516 7.04982 9.90792C5.73707 11.2207 4.99957 13.0012 4.99957 14.8577C4.99957 16.7142 5.73707 18.4947 7.04982 19.8074C8.36258 21.1202 10.1431 21.8577 11.9996 21.8577ZM10.9996 9.85767H12.9996V15.8577H10.9996V9.85767ZM7.99957 2.85767H15.9996V4.85767H7.99957V2.85767Z" fill="#1E1C0B"/>
</g>
<defs>
<clipPath id="clip0_1661_5705">
<rect width="24" height="24" fill="white" transform="translate(0 0.857666)"/>
</clipPath>
</defs>
</svg>
