<svg width="24" height="25" viewBox="0 0 24 25" fill="none" xmlns="http://www.w3.org/2000/svg">
<g clip-path="url(#clip0_1725_15093)">
<path d="M8.25 17.3577C8.25 17.3577 3.07969 14.3577 3.82312 6.1077C3.82312 6.1077 7.54125 9.8577 12 10.6077V9.1077C12 7.0452 13.6875 5.33239 15.75 5.3577C16.4779 5.36615 17.1882 5.58243 17.7972 5.98105C18.4063 6.37968 18.8888 6.94405 19.1878 7.6077H22.5L19.5 10.6077C19.1006 16.8739 13.8675 21.8577 7.5 21.8577C4.5 21.8577 3.75 20.7327 3.75 20.7327C3.75 20.7327 6.75 19.6077 8.25 17.3577Z" stroke="black" stroke-width="2" stroke-linecap="round" stroke-linejoin="round"/>
</g>
<defs>
<clipPath id="clip0_1725_15093">
<rect width="24" height="24" fill="white" transform="translate(0 0.857697)"/>
</clipPath>
</defs>
</svg>
