<svg width="24" height="25" viewBox="0 0 24 25" fill="none" xmlns="http://www.w3.org/2000/svg">
<path d="M18 12.1077C18.8734 12.107 19.7349 12.31 20.516 12.7006C21.2972 13.0912 21.9765 13.6586 22.5 14.3577" stroke="black" stroke-width="2" stroke-linecap="round" stroke-linejoin="round"/>
<path d="M1.5 14.3577C2.0235 13.6586 2.70281 13.0912 3.48398 12.7006C4.26514 12.31 5.12663 12.107 6 12.1077" stroke="black" stroke-width="2" stroke-linecap="round" stroke-linejoin="round"/>
<path d="M12 18.1077C14.0711 18.1077 15.75 16.4287 15.75 14.3577C15.75 12.2866 14.0711 10.6077 12 10.6077C9.92893 10.6077 8.25 12.2866 8.25 14.3577C8.25 16.4287 9.92893 18.1077 12 18.1077Z" stroke="black" stroke-width="2" stroke-linecap="round" stroke-linejoin="round"/>
<path d="M6.75 21.1077C7.2884 20.194 8.0559 19.4367 8.97665 18.9106C9.8974 18.3844 10.9395 18.1077 12 18.1077C13.0605 18.1077 14.1026 18.3844 15.0233 18.9106C15.9441 19.4367 16.7116 20.194 17.25 21.1077" stroke="black" stroke-width="2" stroke-linecap="round" stroke-linejoin="round"/>
<path d="M15.0938 8.35767C15.234 7.81444 15.5238 7.32144 15.9302 6.93464C16.3366 6.54784 16.8433 6.28274 17.3927 6.16946C17.9422 6.05618 18.5125 6.09925 19.0387 6.29378C19.5649 6.48831 20.0261 6.8265 20.3697 7.26995C20.7134 7.7134 20.9258 8.24434 20.9829 8.80247C21.04 9.36059 20.9394 9.92354 20.6926 10.4274C20.4458 10.9312 20.0627 11.3557 19.5867 11.6528C19.1108 11.9498 18.561 12.1074 18 12.1077" stroke="black" stroke-width="2" stroke-linecap="round" stroke-linejoin="round"/>
<path d="M6 12.1077C5.43896 12.1074 4.88925 11.9498 4.41328 11.6528C3.93732 11.3557 3.55418 10.9312 3.30738 10.4274C3.06057 9.92354 2.96 9.36059 3.01708 8.80247C3.07415 8.24434 3.28659 7.7134 3.63027 7.26995C3.97394 6.8265 4.43508 6.48831 4.96131 6.29378C5.48755 6.09925 6.05778 6.05618 6.60726 6.16946C7.15674 6.28274 7.66345 6.54784 8.06983 6.93464C8.47621 7.32144 8.76599 7.81444 8.90625 8.35767" stroke="black" stroke-width="2" stroke-linecap="round" stroke-linejoin="round"/>
</svg>
