<svg width="24" height="25" viewBox="0 0 24 25" fill="none" xmlns="http://www.w3.org/2000/svg">
<path d="M12 22.8577C6.47715 22.8577 2 18.3805 2 12.8577C2 7.33485 6.47715 2.8577 12 2.8577C17.5228 2.8577 22 7.33485 22 12.8577C22 18.3805 17.5228 22.8577 12 22.8577ZM9.71002 20.5251C8.74743 18.4836 8.15732 16.2319 8.02731 13.8577H4.06189C4.458 17.0342 6.71639 19.6324 9.71002 20.5251ZM10.0307 13.8577C10.1811 16.2965 10.8778 18.5874 12 20.6097C13.1222 18.5874 13.8189 16.2965 13.9693 13.8577H10.0307ZM19.9381 13.8577H15.9727C15.8427 16.2319 15.2526 18.4836 14.29 20.5251C17.2836 19.6324 19.542 17.0342 19.9381 13.8577ZM4.06189 11.8577H8.02731C8.15732 9.48347 8.74743 7.23177 9.71002 5.19026C6.71639 6.08303 4.458 8.6812 4.06189 11.8577ZM10.0307 11.8577H13.9693C13.8189 9.41892 13.1222 7.12795 12 5.10569C10.8778 7.12795 10.1811 9.41892 10.0307 11.8577ZM14.29 5.19026C15.2526 7.23177 15.8427 9.48347 15.9727 11.8577H19.9381C19.542 8.6812 17.2836 6.08303 14.29 5.19026Z" fill="black"/>
</svg>
